<?xml version="1.0" encoding="UTF-8"?>
<!DOCTYPE svg PUBLIC "-//W3C//DTD SVG 1.1//EN" "http://www.w3.org/Graphics/SVG/1.1/DTD/svg11.dtd">
<svg xmlns="http://www.w3.org/2000/svg" width="1200" height="400" viewBox="700 900 6600 1200" version="1.1">
<path d="M1760 1335A550 550 1 0 1 1042 527 550 550 0 1 0 1760 1335z" stroke="#B19F6E" stroke-width="0" fill="#B19F6E"/>
<polygon points="1866,475 1786,658 1935,791 1737,771 1656,954 1614,759 1415,739 1587,638 1544,443 1694,576" style="fill:#B19F6E;stroke:#B19F6E;stroke-width:1" />
<path d="M3080 1335A550 550 1 0 1 2362 527 550 550 0 1 0 3080 1335z" stroke="#B19F6E" stroke-width="0" fill="#B19F6E"/>
<polygon points="3186,475 3106,658 3255,791 3057,771 2976,954 2934,759 2735,739 2907,638 2864,443 3014,576" style="fill:#B19F6E;stroke:#B19F6E;stroke-width:1" />
<path d="M4400 1335A550 550 1 0 1 3682 527 550 550 0 1 0 4400 1335z" stroke="#B19F6E" stroke-width="0" fill="#B19F6E"/>
<path d="M5720 1335A550 550 1 0 1 5002 527 550 550 0 1 0 5720 1335z" stroke="#B19F6E" stroke-width="0" fill="#B19F6E"/>
<path d="M7040 1335A550 550 1 0 1 6322 527 550 550 0 1 0 7040 1335z" stroke="#B19F6E" stroke-width="0" fill="#B19F6E"/>
</svg>
